<svg xmlns="http://www.w3.org/2000/svg" viewBox="0 0 360 100">
  <g id="Layer_14" data-name="Layer 14">
    <g>
      <path class="cls-1" d="M309.37,59a36,36,0,1,1-15.68-39.43"/>
      <polyline class="cls-1" points="265.5 50 319.5 50 319.5 68 283.5 68"/>
      <path class="cls-1" d="M201.38,14.87A36,36,0,1,1,193.5,14"/>
      <polyline class="cls-1" points="112.5 86 148.5 86 148.5 68 103.5 68"/>
      <polyline class="cls-1" points="103.5 14 103.5 86 121.5 86 121.5 14 112.5 14"/>
      <path class="cls-1" d="M63.76,21.45v34a20.48,20.48,0,0,0,0-41"/>
      <path class="cls-1" d="M67.5,51.75v34a20.48,20.48,0,1,0,0-40.95"/>
      <polyline class="cls-1" points="40.5 14 40.5 86 58.5 86 58.5 14 49.5 14"/>
    </g>
  </g>
</svg>
