<svg xmlns="http://www.w3.org/2000/svg" xmlns:xlink="http://www.w3.org/1999/xlink" viewBox="0 0 100 125" version="1.1" x="0px" y="0px"><title>129</title><desc>Created with Sketch.</desc><g stroke="none" stroke-width="1" fill="none" fill-rule="evenodd"><path d="M8.39316623,37 C8.1756449,37 7.95848601,37.0177433 7.74384974,37.0530533 C5.56401128,37.4116609 4.08761195,39.469478 4.44621954,41.6493165 L12.6717738,91.6493165 C12.9897004,93.5818705 14.6601899,95 16.6187205,95 L83.3830463,95 C85.3415769,95 87.0120664,93.5818705 87.329993,91.6493165 L95.5555473,41.6493165 C95.5908573,41.4346802 95.6086006,41.2175213 95.6086006,41 C95.6086006,38.790861 93.8177396,37 91.6086006,37 L8.39316623,37 Z M8.39316623,33 L91.6086006,33 C96.0268786,33 99.6086006,36.581722 99.6086006,41 C99.6086006,41.4350426 99.573114,41.8693604 99.5024939,42.298633 L91.2769397,92.298633 C90.6410865,96.163741 87.3001076,99 83.3830463,99 L16.6187205,99 C12.7016592,99 9.36068026,96.163741 8.72482714,92.298633 L0.499272863,42.298633 C-0.21794232,37.938956 2.73485634,33.8233218 7.09453326,33.1061066 C7.52380579,33.0354865 7.95812358,33 8.39316623,33 Z" fill="#000000" fill-rule="nonzero" transform="translate(50.000269, 66.000000) scale(1, -1) translate(-50.000269, -66.000000) "/><path d="M71,48 C71,49.1045695 70.1045695,50 69,50 C67.8954305,50 67,49.1045695 67,48 L67,28 C67,18.6111593 59.3888407,11 50,11 C40.6111593,11 33,18.6111593 33,28 L33,48 C33,49.1045695 32.1045695,50 31,50 C29.8954305,50 29,49.1045695 29,48 L29,28 C29,16.4020203 38.4020203,7 50,7 C61.5979797,7 71,16.4020203 71,28 L71,48 Z" fill="#000000" fill-rule="nonzero"/></g><text x="0" y="115" fill="#000000" font-size="5px" font-weight="bold" font-family="'Helvetica Neue', Helvetica, Arial-Unicode, Arial, Sans-serif">Created by Tatyana Kyul</text><text x="0" y="120" fill="#000000" font-size="5px" font-weight="bold" font-family="'Helvetica Neue', Helvetica, Arial-Unicode, Arial, Sans-serif">from the Noun Project</text></svg>